<?xml version="1.0" standalone="no"?><!DOCTYPE svg PUBLIC "-//W3C//DTD SVG 1.1//EN" "http://www.w3.org/Graphics/SVG/1.1/DTD/svg11.dtd"><svg t="1649746193846" class="icon" viewBox="0 0 1024 1024" version="1.1" xmlns="http://www.w3.org/2000/svg" p-id="60541" xmlns:xlink="http://www.w3.org/1999/xlink" width="128" height="128"><defs><style type="text/css">@font-face { font-family: feedback-iconfont; src: url("//at.alicdn.com/t/font_1031158_u69w8yhxdu.woff2?t=1630033759944") format("woff2"), url("//at.alicdn.com/t/font_1031158_u69w8yhxdu.woff?t=1630033759944") format("woff"), url("//at.alicdn.com/t/font_1031158_u69w8yhxdu.ttf?t=1630033759944") format("truetype"); }
</style></defs><path d="M358.4 563.2H102.4c-56.32 0-102.4 46.08-102.4 102.4v256c0 56.32 46.08 102.4 102.4 102.4h256c56.32 0 102.4-46.08 102.4-102.4v-256c0-56.32-46.08-102.4-102.4-102.4z m0 358.4H102.4v-256h256v256zM358.4 0H102.4C46.08 0 0 46.08 0 102.4v256c0 56.32 46.08 102.4 102.4 102.4h256c56.32 0 102.4-46.08 102.4-102.4V102.4c0-56.32-46.08-102.4-102.4-102.4z m0 358.4H102.4V102.4h256v256zM921.6 563.2h-256c-56.32 0-102.4 46.08-102.4 102.4v256c0 56.32 46.08 102.4 102.4 102.4h256c56.32 0 102.4-46.08 102.4-102.4v-256c0-56.32-46.08-102.4-102.4-102.4z m0 358.4h-256v-256h256v256zM778.24 496.64c25.6 0 51.2-10.24 71.68-30.72l143.36-143.36c40.96-40.96 40.96-107.52 0-143.36L849.92 35.84c-20.48-25.6-46.08-35.84-71.68-35.84-25.6 0-51.2 10.24-71.68 30.72L563.2 174.08c-40.96 40.96-40.96 107.52 0 143.36L706.56 460.8c15.36 25.6 46.08 35.84 71.68 35.84z m0-394.24L921.6 245.76l-143.36 143.36-143.36-143.36L778.24 102.4z" p-id="60542" fill="#4282fd"></path></svg>