<?xml version="1.0" standalone="no"?><!DOCTYPE svg PUBLIC "-//W3C//DTD SVG 1.1//EN" "http://www.w3.org/Graphics/SVG/1.1/DTD/svg11.dtd"><svg t="1649743845206" class="icon" viewBox="0 0 1024 1024" version="1.1" xmlns="http://www.w3.org/2000/svg" p-id="30832" xmlns:xlink="http://www.w3.org/1999/xlink" width="128" height="128"><defs><style type="text/css">@font-face { font-family: feedback-iconfont; src: url("//at.alicdn.com/t/font_1031158_u69w8yhxdu.woff2?t=1630033759944") format("woff2"), url("//at.alicdn.com/t/font_1031158_u69w8yhxdu.woff?t=1630033759944") format("woff"), url("//at.alicdn.com/t/font_1031158_u69w8yhxdu.ttf?t=1630033759944") format("truetype"); }
</style></defs><path d="M429.4 959c-12 0-24.1-3.2-35.1-9.7-26.7-15.8-39.3-46.6-31.4-76.6l61.7-233.2-278.2-46.6c-26.2-4.4-47-22.9-54.5-48.3s0.1-52.3 19.7-70.1L539 85.4c22.9-20.8 56-23.9 82.3-7.6 26.3 16.3 38.3 47.2 29.9 77l-59.6 211.4 279 46.7c25.8 4.3 46.6 22.5 54.3 47.6s0.7 51.8-18.3 69.8l-430 409.6c-13.2 12.6-30.1 19.1-47.2 19.1zM204.6 511.4l257.9 43.2c19 3.2 35.9 14.3 46.3 30.5 10.4 16.2 13.6 36.1 8.7 54.8l-48.3 182.7 344.3-327.9-260.3-43.6c-19.2-3.2-36.2-14.5-46.6-31-10.4-16.4-13.4-36.6-8.1-55.3l45.8-162.5-339.7 309.1z" fill="#4282fd" p-id="30833"></path></svg>