<?xml version="1.0" standalone="no"?><!DOCTYPE svg PUBLIC "-//W3C//DTD SVG 1.1//EN" "http://www.w3.org/Graphics/SVG/1.1/DTD/svg11.dtd"><svg t="1649753030802" class="icon" viewBox="0 0 1024 1024" version="1.1" xmlns="http://www.w3.org/2000/svg" p-id="137338" xmlns:xlink="http://www.w3.org/1999/xlink" width="128" height="128"><defs><style type="text/css">@font-face { font-family: feedback-iconfont; src: url("//at.alicdn.com/t/font_1031158_u69w8yhxdu.woff2?t=1630033759944") format("woff2"), url("//at.alicdn.com/t/font_1031158_u69w8yhxdu.woff?t=1630033759944") format("woff"), url("//at.alicdn.com/t/font_1031158_u69w8yhxdu.ttf?t=1630033759944") format("truetype"); }
</style></defs><path d="M910.222222 398.222222a50.346667 50.346667 0 0 0-45.511111-28.444444H572.017778l56.888889-293.546667a50.631111 50.631111 0 0 0-90.453334-37.831111L118.613333 572.871111A50.631111 50.631111 0 0 0 159.288889 654.222222h292.977778l-56.888889 293.546667a50.915556 50.915556 0 0 0 50.346666 56.888889 50.062222 50.062222 0 0 0 39.822223-19.626667l419.555555-533.617778A50.346667 50.346667 0 0 0 910.222222 398.222222zM506.595556 820.337778L555.52 568.888889H230.4L517.404444 203.662222 468.48 455.111111H793.6z" p-id="137339" fill="#4282fd"></path></svg>