<?xml version="1.0" standalone="no"?><!DOCTYPE svg PUBLIC "-//W3C//DTD SVG 1.1//EN" "http://www.w3.org/Graphics/SVG/1.1/DTD/svg11.dtd"><svg t="1649741135724" class="icon" viewBox="0 0 1024 1024" version="1.1" xmlns="http://www.w3.org/2000/svg" p-id="9691" xmlns:xlink="http://www.w3.org/1999/xlink" width="128" height="128"><defs><style type="text/css">@font-face { font-family: feedback-iconfont; src: url("//at.alicdn.com/t/font_1031158_u69w8yhxdu.woff2?t=1630033759944") format("woff2"), url("//at.alicdn.com/t/font_1031158_u69w8yhxdu.woff?t=1630033759944") format("woff"), url("//at.alicdn.com/t/font_1031158_u69w8yhxdu.ttf?t=1630033759944") format("truetype"); }
</style></defs><path d="M898.48 719.77c-16.22 0-29.36-14.33-29.36-32v-506c0-11.05-8.22-20-18.35-20H255.75c-16.22 0-29.36-14.33-29.36-32s13.15-32 29.36-32h598.69c40.54 0 73.4 35.82 73.4 80v510c0.01 17.67-13.14 32-29.36 32z" p-id="9692" fill="#4282fd"></path><path d="M753.71 258.22c8.82 0 16 7.18 16 16V736c0 8.82-7.18 16-16 16H652.22l-19.2 23.38-59.93 72.97-57.79-72.3L496.07 752H179.71c-8.82 0-16-7.18-16-16V274.22c0-8.82 7.18-16 16-16h574m0-64h-574c-44.18 0-80 35.82-80 80V736c0 44.18 35.82 80 80 80h285.58l76.28 95.44c8 10.01 19.62 15.03 31.25 15.03 11.45 0 22.9-4.86 30.91-14.61L682.46 816h71.24c44.18 0 80-35.82 80-80V274.22c0.01-44.18-35.81-80-79.99-80z" p-id="9693" fill="#4282fd"></path><path d="M604.22 704.85c-12.63 0-24.59-7.52-29.65-19.94L467.34 421.45 358.8 685.03c-6.73 16.34-25.43 24.13-41.77 17.4-16.34-6.73-24.13-25.43-17.4-41.77l129.65-314.83 0.17-0.39c7.07-15.94 22.42-25.92 39.2-25.42 16.65 0.49 31.37 11.21 37.66 27.37l127.55 313.39c6.66 16.37-1.21 35.04-17.58 41.7a31.933 31.933 0 0 1-12.06 2.37z" p-id="9694" fill="#4282fd"></path><path d="M551 509.5H381v64h170v-64z" p-id="9695" fill="#4282fd"></path></svg>