<?xml version="1.0" standalone="no"?><!DOCTYPE svg PUBLIC "-//W3C//DTD SVG 1.1//EN" "http://www.w3.org/Graphics/SVG/1.1/DTD/svg11.dtd"><svg t="1649744621705" class="icon" viewBox="0 0 1024 1024" version="1.1" xmlns="http://www.w3.org/2000/svg" p-id="40207" xmlns:xlink="http://www.w3.org/1999/xlink" width="128" height="128"><defs><style type="text/css">@font-face { font-family: feedback-iconfont; src: url("//at.alicdn.com/t/font_1031158_u69w8yhxdu.woff2?t=1630033759944") format("woff2"), url("//at.alicdn.com/t/font_1031158_u69w8yhxdu.woff?t=1630033759944") format("woff"), url("//at.alicdn.com/t/font_1031158_u69w8yhxdu.ttf?t=1630033759944") format("truetype"); }
</style></defs><path d="M803.904 363.2C774.826667 228.736 655.168 128 512 128c-143.168 0-262.826667 100.736-291.904 235.2A42.666667 42.666667 0 0 1 256 405.333333v213.333334a42.666667 42.666667 0 0 1-42.666667 42.666666H149.333333c-58.88 0-106.666667-47.850667-106.666666-106.666666v-85.333334a106.752 106.752 0 0 1 90.453333-105.429333C163.050667 181.674667 321.28 42.666667 512 42.666667c190.72 0 348.928 139.008 378.88 321.237333A106.794667 106.794667 0 0 1 981.333333 469.333333v85.333334a106.730667 106.730667 0 0 1-100.288 106.474666c-39.125333 135.829333-151.210667 240.768-291.093333 269.610667a85.333333 85.333333 0 1 1-9.237333-85.354667 299.264 299.264 0 0 0 211.84-188.074666A42.666667 42.666667 0 0 1 768 618.666667V405.333333a42.666667 42.666667 0 0 1 35.904-42.133333zM149.333333 448c-11.733333 0-21.333333 9.6-21.333333 21.333333v85.333334c0 11.733333 9.6 21.333333 21.333333 21.333333h21.333334v-128H149.333333z m704 0v128h21.333334c11.733333 0 21.333333-9.6 21.333333-21.333333v-85.333334c0-11.733333-9.6-21.333333-21.333333-21.333333h-21.333334z" fill="#4282fd" p-id="40208"></path></svg>