<?xml version="1.0" standalone="no"?><!DOCTYPE svg PUBLIC "-//W3C//DTD SVG 1.1//EN" "http://www.w3.org/Graphics/SVG/1.1/DTD/svg11.dtd"><svg t="1655285795666" class="icon" viewBox="0 0 1024 1024" version="1.1" xmlns="http://www.w3.org/2000/svg" p-id="11282" xmlns:xlink="http://www.w3.org/1999/xlink" width="200" height="200"><defs><style type="text/css">@font-face { font-family: feedback-iconfont; src: url("//at.alicdn.com/t/font_1031158_u69w8yhxdu.woff2?t=1630033759944") format("woff2"), url("//at.alicdn.com/t/font_1031158_u69w8yhxdu.woff?t=1630033759944") format("woff"), url("//at.alicdn.com/t/font_1031158_u69w8yhxdu.ttf?t=1630033759944") format("truetype"); }
</style></defs><path d="M85.333333 213.333333a85.333333 85.333333 0 0 1 85.333334-85.333333h597.333333a85.333333 85.333333 0 0 1 85.333333 85.333333v170.666667a42.666667 42.666667 0 1 1-85.333333 0V213.333333H170.666667v597.333334h298.666666a42.666667 42.666667 0 1 1 0 85.333333H170.666667a85.333333 85.333333 0 0 1-85.333334-85.333333V213.333333z" p-id="11283" fill="#4282FD"></path><path d="M597.333333 682.666667a42.666667 42.666667 0 0 1 42.666667-42.666667h256a42.666667 42.666667 0 1 1 0 85.333333h-256a42.666667 42.666667 0 0 1-42.666667-42.666666zM85.333333 640a42.666667 42.666667 0 0 1 42.666667-42.666667h341.333333a42.666667 42.666667 0 1 1 0 85.333334H128a42.666667 42.666667 0 0 1-42.666667-42.666667z" p-id="11284" fill="#4282FD"></path><path d="M768 512a42.666667 42.666667 0 0 1 42.666667 42.666667v256a42.666667 42.666667 0 1 1-85.333334 0v-256a42.666667 42.666667 0 0 1 42.666667-42.666667zM469.333333 128a42.666667 42.666667 0 0 1 42.666667 42.666667v682.666666a42.666667 42.666667 0 1 1-85.333333 0V170.666667a42.666667 42.666667 0 0 1 42.666666-42.666667z" p-id="11285" fill="#4282FD"></path><path d="M85.333333 384a42.666667 42.666667 0 0 1 42.666667-42.666667h682.666667a42.666667 42.666667 0 1 1 0 85.333334H128a42.666667 42.666667 0 0 1-42.666667-42.666667z" p-id="11286" fill="#4282FD"></path></svg>