<?xml version="1.0" standalone="no"?><!DOCTYPE svg PUBLIC "-//W3C//DTD SVG 1.1//EN" "http://www.w3.org/Graphics/SVG/1.1/DTD/svg11.dtd"><svg t="1649744432617" class="icon" viewBox="0 0 1024 1024" version="1.1" xmlns="http://www.w3.org/2000/svg" p-id="39209" xmlns:xlink="http://www.w3.org/1999/xlink" width="128" height="128"><defs><style type="text/css">@font-face { font-family: feedback-iconfont; src: url("//at.alicdn.com/t/font_1031158_u69w8yhxdu.woff2?t=1630033759944") format("woff2"), url("//at.alicdn.com/t/font_1031158_u69w8yhxdu.woff?t=1630033759944") format("woff"), url("//at.alicdn.com/t/font_1031158_u69w8yhxdu.ttf?t=1630033759944") format("truetype"); }
</style></defs><path d="M974.4384 226.9184l-81.1008-81.1008c-11.8784-11.8784-31.5392-11.8784-43.4176 0-11.8784 11.8784-11.8784 31.5392 0 43.4176l28.672 28.672h-336.6912c-2.048 0-4.5056 0.4096-6.5536 0.8192-5.7344-0.4096-11.4688-0.4096-17.6128-0.4096-92.5696 0-175.3088 43.8272-228.1472 111.4112V156.0576l28.672 28.672c6.144 6.144 13.9264 9.0112 21.7088 9.0112s15.5648-2.8672 21.7088-9.0112c11.8784-11.8784 11.8784-31.5392 0-43.4176L280.9856 60.2112c-11.8784-11.8784-31.5392-11.8784-43.4176 0L156.4672 140.9024c-11.8784 11.8784-11.8784 31.5392 0 43.4176 11.8784 11.8784 31.5392 11.8784 43.4176 0l28.672-28.672v339.968c0 4.096-0.4096 7.7824-0.4096 11.8784 0 92.5696 43.8272 175.3088 111.4112 228.1472H145.408l28.672-28.672c11.8784-11.8784 11.8784-31.5392 0-43.4176-11.8784-11.8784-31.5392-11.8784-43.4176 0l-81.1008 81.1008c-11.8784 11.8784-11.8784 31.5392 0 43.4176l81.1008 81.1008c6.144 6.144 13.9264 9.0112 21.7088 9.0112s15.5648-2.8672 21.7088-9.0112c11.8784-11.8784 11.8784-31.5392 0-43.4176l-28.672-28.672h336.6912c2.8672 0 5.7344-0.4096 8.6016-1.2288 9.0112 0.8192 18.432 1.2288 27.8528 1.2288 92.5696 0 175.3088-43.8272 228.5568-111.8208v182.272l-28.672-28.672c-11.8784-11.8784-31.5392-11.8784-43.4176 0-11.8784 11.8784-11.8784 31.5392 0 43.4176l81.1008 81.1008c6.144 6.144 13.9264 9.0112 21.7088 9.0112s15.5648-2.8672 21.7088-9.0112l81.1008-81.1008c11.8784-11.8784 11.8784-31.5392 0-43.4176-11.8784-11.8784-31.5392-11.8784-43.4176 0l-28.672 28.672v-336.6912c0-2.048-0.4096-4.5056-0.8192-6.5536 0.4096-5.7344 0.4096-11.4688 0.4096-17.2032 0-92.5696-43.8272-175.3088-111.8208-228.5568h182.272l-28.672 28.672c-11.8784 11.8784-11.8784 31.5392 0 43.4176 6.144 6.144 13.9264 9.0112 21.7088 9.0112s15.5648-2.8672 21.7088-9.0112L974.4384 270.336c5.7344-5.7344 9.0112-13.5168 9.0112-21.7088s-3.2768-15.9744-9.0112-21.7088zM746.7008 507.904c0 125.7472-102.4 228.5568-228.5568 228.5568s-228.5568-102.4-228.5568-228.5568 102.4-228.5568 228.5568-228.5568 228.5568 102.4 228.5568 228.5568z" fill="#4282fd" p-id="39210"></path></svg>